Coordinates
version=1
nRows=19
nColumns=34
inDegrees=yes

Units are S.I. units (second, meters, Newtons, ...)
If the header above contains a line with 'inDegrees', this indicates whether rotational values are in degrees (yes) or radians (no).

endheader
time	pelvis_tilt	pelvis_list	pelvis_rotation	pelvis_tx	pelvis_ty	pelvis_tz	hip_flexion_r	hip_adduction_r	hip_rotation_r	knee_angle_r	ankle_angle_r	subtalar_angle_r	mtp_angle_r	hip_flexion_l	hip_adduction_l	hip_rotation_l	knee_angle_l	ankle_angle_l	subtalar_angle_l	mtp_angle_l	lumbar_extension	lumbar_bending	lumbar_rotation	arm_flex_r	arm_add_r	arm_rot_r	elbow_flex_r	pro_sup_r	arm_flex_l	arm_add_l	arm_rot_l	elbow_flex_l	pro_sup_l
      2.70000000	      1.30424203	     -2.50931050	     21.24593564	     -0.55090087	      0.69137598	     -0.23216766	     -4.26120814	     -4.03685200	     39.99999995	     19.62344554	    -50.00000000	    -35.00000000	      0.00000000	     21.77813838	     -5.05761408	     15.79186323	     41.24264924	     50.00000000	     26.70335540	      0.00000000	    -17.84563368	     11.54906116	     -5.42702706	     -7.42199170	    -19.38156054	     -4.79493046	     22.41379937	     67.94211943	     11.66304810	    -16.88585586	     61.01903647	     19.23808940	     54.33019100
      2.71666670	      2.29065805	     -2.36461974	     21.14218561	     -0.54812850	      0.69075127	     -0.23098710	     -5.25204271	     -3.71358278	     39.99999995	     19.94982794	    -50.00000000	    -35.00000000	      0.00000000	     20.70190681	     -5.30778182	     16.09233948	     41.51542073	     50.00000000	     26.43117318	      0.00000000	    -19.86641665	     11.98309609	     -5.32113772	     -6.55470458	    -19.47807523	     -4.61919053	     22.21223834	     68.05595682	     11.96449201	    -16.75082693	     60.32997307	     18.92113858	     54.70252343
      2.73333330	      3.09796407	     -2.09140624	     21.00734243	     -0.54801034	      0.69024365	     -0.23178464	     -6.22029349	     -3.63460173	     39.99999995	     20.16852050	    -50.00000000	    -35.00000000	      0.00000000	     19.67384221	     -5.33063089	     16.20813495	     41.60786191	     50.00000000	     26.27776655	      0.00000000	    -21.55027508	     12.14469946	     -5.20525101	     -5.92123398	    -19.51874455	     -4.40031654	     22.03783756	     68.19505377	     12.20352235	    -16.69205523	     59.57334349	     18.60154109	     55.10505146
      2.75000000	      3.44750996	     -2.19884697	     20.85924274	     -0.54994221	      0.69209024	     -0.23112424	     -6.32790203	     -3.30459826	     39.99999995	     20.55557508	    -50.00000000	    -35.00000000	      0.00000000	     19.33393198	     -5.46146476	     16.43700094	     41.67972880	     50.00000000	     26.08935547	      0.00000000	    -22.50641390	     12.47469816	     -5.09028554	     -5.45388960	    -19.65805065	     -4.32654011	     22.07907014	     68.25298073	     12.44687684	    -16.64307765	     59.28025890	     18.45806530	     55.25734071
      2.76666670	      3.38483496	     -2.18744962	     20.86051658	     -0.54817924	      0.69158112	     -0.23054137	     -6.33006255	     -3.28502589	     39.99999995	     20.55460862	    -50.00000000	    -35.00000000	      0.00000000	     19.28350896	     -5.46756752	     16.44531711	     41.70132103	     50.00000000	     26.09243635	      0.00000000	    -22.52079402	     12.47721356	     -5.09131791	     -5.45779093	    -19.65826176	     -4.32511452	     22.07656807	     68.25382944	     12.44632174	    -16.64549347	     59.27651512	     18.45419911	     55.25917530
      2.78333330	      3.20981789	     -1.95656364	     20.53840918	     -0.54585426	      0.69287608	     -0.23040543	     -6.28584715	     -3.45270415	     39.99999995	     20.72387585	    -50.00000000	    -35.00000000	      0.00000000	     18.87240350	     -5.34655368	     16.22777743	     41.25904794	     50.00000000	     25.97961421	      0.00000000	    -22.16396291	     11.84719124	     -5.01361199	     -5.91416670	    -19.47361068	     -4.17296775	     22.00555205	     68.33589041	     12.09635202	    -16.74845032	     58.98546085	     18.17387986	     55.40653027
      2.80000000	      2.62139664	     -1.75653091	     20.30744516	     -0.54664905	      0.69357112	     -0.23041894	     -5.72355662	     -3.84099717	     39.99999995	     20.69982266	    -50.00000000	    -35.00000000	      0.00000000	     19.10923328	     -5.04537095	     15.81629363	     40.87161313	     50.00000000	     26.01912497	      0.00000000	    -21.11932072	     11.09103593	     -4.99253636	     -6.56621871	    -19.29396234	     -4.04685889	     22.04870445	     68.41308635	     11.70854745	    -16.94627385	     58.71249029	     18.02281348	     55.54932365
      2.81666670	      1.64038038	     -1.93135668	     20.24813412	     -0.54478901	      0.69395448	     -0.23066025	     -4.78656244	     -3.98896791	     39.99999995	     20.60807869	    -50.00000000	    -35.00000000	      0.00000000	     19.91776169	     -4.93707687	     15.73417219	     40.70415535	     50.00000000	     26.12315377	      0.00000000	    -19.09870815	     10.66049614	     -5.52953745	     -7.34621254	    -19.49701494	     -2.59582024	     22.22516247	     70.83512017	      9.98596535	    -16.64428567	     49.83696823	     17.97194401	     63.00629407
      2.83333330	      0.54980260	     -1.93611446	     20.06966876	     -0.54405912	      0.69242560	     -0.23038457	     -3.73019400	     -4.34293859	     39.99999995	     20.60842275	    -50.00000000	    -35.00000000	      0.00000000	     20.74212652	     -4.72146769	     15.48643700	     40.51084040	     50.00000000	     26.14533394	      0.00000000	    -16.78049217	      9.81729515	     -5.64394455	     -8.52419984	    -19.23646670	     -2.71319241	     22.36210973	     70.85142351	      9.37738948	    -17.01247279	     50.19767533	     18.06858128	     63.49845083
      2.85000000	     -0.65202963	     -1.96869939	     19.90586710	     -0.54223572	      0.69274974	     -0.23051010	     -2.76120445	     -4.72412364	     39.99999995	     20.38605703	    -50.00000000	    -35.00000000	      0.00000000	     21.63792676	     -4.39942519	     15.37757188	     40.14960141	     50.00000000	     26.17857019	      0.00000000	    -14.04307194	      8.94140784	     -5.73611444	     -9.93728391	    -19.06273773	     -2.82699371	     22.69612348	     70.89340095	      8.65419084	    -17.31312686	     50.55619646	     18.25312745	     64.03401567
      2.86666670	     -2.24309009	     -1.90927874	     19.67330368	     -0.53999780	      0.69611090	     -0.22980749	     -1.43335589	     -5.35375866	     39.99999995	     20.04452930	    -50.00000000	    -35.00000000	      0.00000000	     22.45128563	     -3.94961021	     15.11517332	     39.09470443	     50.00000000	     26.22128243	      0.00000000	    -10.90485987	      7.71410235	     -5.72368804	    -11.40280160	    -18.81303595	     -2.81741863	     22.87609872	     70.93779979	      7.92585982	    -17.74250657	     50.72582751	     18.39617026	     64.30466444
      2.88333330	     -3.97559428	     -2.43789961	     19.36707292	     -0.53965147	      0.69730667	     -0.22982553	      0.46828014	     -5.31059165	     39.99999995	     20.00639841	    -50.00000000	    -35.00000000	      0.00000000	     23.62786707	     -4.03996098	     15.15398180	     37.92317960	     50.00000000	     26.40115704	      0.00000000	     -7.36408932	      7.18202328	     -5.55855862	    -13.04058176	    -18.97320963	     -2.85226955	     23.60640811	     71.03328005	      7.18577775	    -18.02537216	     51.10263084	     18.80995861	     64.81867982
      2.90000000	     -5.70989210	     -2.59990205	     19.11725375	     -0.53904410	      0.69698456	     -0.22863068	      2.22098916	     -5.64003669	     39.99999995	     19.83458389	    -50.00000000	    -35.00000000	      0.00000000	     24.96913126	     -3.76154600	     14.91274348	     37.07349877	     50.00000000	     26.44794217	      0.00000000	     -4.08842590	      6.21803969	     -5.35802485	    -14.64665383	    -18.96503747	     -2.87795008	     24.40293047	     71.13478112	      6.72669179	    -18.53239806	     51.48602805	     19.30425053	     65.30326809
      2.91666670	     -7.34570323	     -2.64134190	     18.85263371	     -0.53540073	      0.69692791	     -0.22788988	      3.70214305	     -6.07043656	     39.99999995	     19.62695895	    -50.00000000	    -35.00000000	      0.00000000	     26.00361669	     -3.43962491	     14.57745125	     35.88582744	     49.36474351	     26.26353704	      0.00000000	     -0.84111200	      5.16812540	     -5.02968456	    -16.37592034	    -18.91844818	     -2.90674828	     25.27831489	     71.25755873	      6.21205888	    -19.11687620	     52.04806317	     19.87419986	     65.84581903
      2.93333330	     -9.00158320	     -2.61822257	     18.71686399	     -0.53019948	      0.69639528	     -0.22685296	      4.95386108	     -6.60986434	     39.99999995	     19.14431242	    -50.00000000	    -35.00000000	      0.00000000	     26.77800007	     -3.02726123	     14.57173005	     34.37595467	     48.09504835	     25.65070815	      0.00000000	      2.43795133	      3.99234679	     -4.71937212	    -18.19093819	    -18.84316476	     -2.98150148	     26.25476170	     71.37474203	      5.80101065	    -19.86320355	     52.71176113	     20.51259329	     66.35895511
      2.95000000	    -10.42324730	     -2.53407809	     18.73186521	     -0.52801414	      0.69874878	     -0.22687233	      5.82573491	     -7.18294429	     39.99999995	     18.51012087	    -50.00000000	    -35.00000000	      0.00000000	     27.17527278	     -2.50094689	     14.97421897	     32.76753001	     46.32363814	     24.49543628	      0.00000000	      5.30158978	      2.95373107	     -4.19110867	    -20.66356937	    -18.78820915	     -3.50807918	     28.40730548	     71.56913842	      5.68005023	    -20.85772542	     54.52487554	     21.86764487	     67.41387741
      2.96666670	    -11.85017848	     -2.45943353	     18.58808419	     -0.52340373	      0.69880671	     -0.22586386	      6.86866374	     -7.56621999	     39.99999995	     18.28358126	    -50.00000000	    -35.00000000	      0.00000000	     27.67513901	     -2.18362807	     14.96438111	     31.60000243	     45.48732622	     24.07942620	      0.00000000	      8.28508465	      1.89762194	     -3.35142224	    -23.24987544	    -18.27617076	     -5.50481055	     30.27327473	     71.87057754	      5.96951326	    -22.23730892	     58.79901093	     23.36213440	     69.06579988
      2.98333330	    -12.89520274	     -2.37121202	     18.51702943	     -0.51868568	      0.69750741	     -0.22443891	      7.42298235	     -7.93932292	     39.99999995	     17.87380786	    -50.00000000	    -35.00000000	      0.00000000	     27.69533383	     -1.95122373	     15.37817841	     30.33257572	     44.37757389	     23.30949938	      0.00000000	     10.71964225	      1.02800608	     -2.24084542	    -25.89729371	    -17.98338860	     -5.77337306	     31.95572224	     72.10098922	      6.12627346	    -23.21680654	     59.71814715	     24.79237427	     69.17548426
      3.00000000	    -14.20594937	     -2.34057209	     18.37517566	     -0.51432908	      0.69975837	     -0.22314829	      8.22184782	     -8.31082486	     39.99999995	     17.35721884	    -50.00000000	    -35.00000000	      0.00000000	     27.66042842	     -1.70902904	     15.97798879	     28.50978514	     42.95535242	     22.14775430	      0.00000000	     13.33126767	      0.28467381	     -1.02551243	    -29.07656259	    -17.62836386	     -6.79396808	     34.76686486	     72.21785452	      6.29076507	    -24.65640097	     61.47288347	     27.36919726	     69.30789420
